<svg width="100" height="100" viewBox="0 0 100 100" fill="none" xmlns="http://www.w3.org/2000/svg">
	<defs>
		<style type="text/css">
			<![CDATA[
			#Outer {
				animation: counter-clockwise 8s linear infinite;
				transform-origin: center;
				transform-box: view-box;
			}
			@keyframes counter-clockwise {
				from {
					transform: rotateZ(0);
				}
				to {
					transform: rotateZ(-360deg);
				}
			}
		]]>
		</style>
	</defs>
	<g id="End Node 2 1" clip-path="url(#clip0)">
		<g id="Outer">
			<path id="Vector" d="M72.5255 18.1072C65.0567 12.9281 56.3025 10.5047 47.2096 11.1011C43.5313 11.3424 39.9237 12.0811 36.488 13.2976L33.1223 3.78706C37.43 2.26248 41.9477 1.33617 46.5493 1.03435C57.9422 0.287085 68.913 3.32512 78.2748 9.81828L72.5255 18.1072Z" fill="#010638"/>
			<path id="Vector_2" d="M50.4794 99.6223L50.3285 89.535C62.5297 89.3534 73.8179 83.688 81.2994 73.9926L89.2864 80.1552C79.9164 92.2992 65.7719 99.3947 50.4794 99.6223Z" fill="#010638"/>
			<path id="Vector_3" d="M96.2518 67.9976L86.8384 64.3713C88.5875 59.8307 89.479 55.0354 89.4893 50.1203C89.4984 45.7321 88.8001 41.421 87.4155 37.3046L96.9768 34.0874C98.7148 39.2482 99.5891 44.6505 99.5777 50.1413C99.5648 56.2945 98.4457 62.3025 96.2518 67.9976Z" fill="#010638"/>
			<path id="Vector_4" d="M85.6884 31.7531C83.5261 27.669 80.6907 24.0154 77.2577 20.8914L84.0471 13.4304C88.3444 17.34 91.8958 21.9176 94.6044 27.0345L85.6884 31.7531Z" fill="#010638"/>
		</g>
		<path id="Vector_5" d="M50 85C30.7008 85 15 69.2985 15 49.9998C15 30.7008 30.7008 15 50 15C69.2992 15 85 30.7008 85 49.9998C85 69.2985 69.2992 85 50 85ZM50 21.7194C34.4062 21.7194 21.7198 34.4054 21.7198 49.9998C21.7198 65.5931 34.4059 78.2799 50 78.2799C65.5941 78.2799 78.2802 65.5935 78.2802 49.9998C78.2802 34.4054 65.5941 21.7194 50 21.7194Z" fill="#010638"/>

		<circle id="Dot" cx="50" cy="50" r="6" fill="#E67A14"/>

	</g>
</svg>
