<svg width="80" height="100" viewBox="0 0 80 100" fill="none" xmlns="http://www.w3.org/2000/svg">
<g id="lock">
<path id="path14" d="M69.4808 39.919V27.8903C69.4808 12.486 56.2821 -5.21541e-06 39.9995 -5.21541e-06C23.7173 -5.21541e-06 10.519 12.486 10.519 27.8903V39.919H0V100H80V39.919H69.4808ZM43.7338 72.9772L44.8454 83.8355H35.154L36.2651 72.977C32.9781 71.6152 30.682 68.5117 30.6815 64.9C30.6815 60.0303 34.8533 56.0843 39.9998 56.0833C45.1467 56.0843 49.3183 60.031 49.319 64.9C49.3183 68.5124 47.0214 71.6159 43.7338 72.9772V72.9772ZM53.4864 39.919H26.5139V27.8903C26.5139 20.8557 32.5638 15.132 39.9995 15.132C47.4365 15.132 53.4864 20.8557 53.4864 27.8903V39.919" fill="#010638"/>
</g>
</svg>
