<?xml version="1.0" encoding="iso-8859-1"?>
<svg version="1.1" id="maze" xmlns="http://www.w3.org/2000/svg" xmlns:xlink="http://www.w3.org/1999/xlink" x="0px" y="0px"
	 viewBox="0 0 512 512" style="enable-background:new 0 0 512 512;" xml:space="preserve">
<path style="fill:#17ACE8;" d="M497,0h-60c-8.401,0-15,6.599-15,15v136h-45c-8.401,0-15,6.599-15,15c0,8.399,6.599,15,15,15h105v30
	h-45c-8.401,0-15,6.599-15,15v60c0,8.399,6.599,15,15,15h45v181h-90v-30h45c8.401,0,15-6.601,15-15v-91c0-8.401-6.599-15-15-15h-45
	V226c0-8.401-6.599-15-15-15s-15,6.599-15,15v75h-30V121h45c8.401,0,15-6.601,15-15V15c0-8.401-6.599-15-15-15H15
	C6.599,0,0,6.599,0,15v482c0,8.399,6.599,15,15,15h302c8.401,0,15-6.601,15-15v-60c0-8.401-6.599-15-15-15H211V211h91v105
	c0,8.399,6.599,15,15,15h45v30h-91V256c0-8.401-6.599-15-15-15s-15,6.599-15,15v120c0,8.399,6.599,15,15,15h121
	c8.401,0,15-6.601,15-15v-15h30v61h-45c-8.401,0-15,6.599-15,15v60c0,8.399,6.599,15,15,15h120c8.401,0,15-6.601,15-15V15
	C512,6.599,505.401,0,497,0z M30,91h75c8.401,0,15-6.601,15-15c0-8.401-6.599-15-15-15H30V30h120v91H75c-8.401,0-15,6.599-15,15v45
	H30V91z M241,91V76c0-8.401-6.599-15-15-15s-15,6.599-15,15v60c0,8.399,6.599,15,15,15s15-6.601,15-15v-15h61v60H196
	c-8.401,0-15,6.599-15,15v241c0,8.399,6.599,15,15,15h106v30H150v-15c0-8.401-6.599-15-15-15s-15,6.599-15,15v15H30v-30h45
	c8.401,0,15-6.601,15-15c0-8.401-6.599-15-15-15H30V211h90v30H75c-8.401,0-15,6.599-15,15c0,8.399,6.599,15,15,15h45v90H90v-45
	c0-8.401-6.599-15-15-15s-15,6.599-15,15v60c0,8.399,6.599,15,15,15h45v16c0,8.399,6.599,15,15,15s15-6.601,15-15V196
	c0-8.401-6.599-15-15-15H90v-30h76c8.401,0,15-6.601,15-15V30h181v61H241z M482,271h-30v-30h30V271z M482,151h-30V30h30V151z"/>
<g>
	<path style="fill:#1689FC;" d="M332,437v60c0,8.399-6.599,15-15,15h-61v-30h46v-30h-46v-30h61C325.401,422,332,428.599,332,437z"/>
	<path style="fill:#1689FC;" d="M497,0h-60c-8.401,0-15,6.599-15,15v136h-45c-8.401,0-15,6.599-15,15c0,8.399,6.599,15,15,15h105v30
		h-45c-8.401,0-15,6.599-15,15v60c0,8.399,6.599,15,15,15h45v181h-90v-30h45c8.401,0,15-6.601,15-15v-91c0-8.401-6.599-15-15-15h-45
		V226c0-8.401-6.599-15-15-15s-15,6.599-15,15v75h-30V121h45c8.401,0,15-6.601,15-15V15c0-8.401-6.599-15-15-15H256v30h106v61H256
		v30h46v60h-46v30h46v105c0,8.399,6.599,15,15,15h45v30h-91V256c0-8.401-6.599-15-15-15v150h121c8.401,0,15-6.601,15-15v-15h30v61
		h-45c-8.401,0-15,6.599-15,15v60c0,8.399,6.599,15,15,15h120c8.401,0,15-6.601,15-15V15C512,6.599,505.401,0,497,0z M482,271h-30
		v-30h30V271z M482,151h-30V30h30V151z"/>
</g>
</svg>
