<svg width="100%" height="100%" viewBox="0 0 80 80" fill="none" xmlns="http://www.w3.org/2000/svg">
	<g id="icon-core">
		<path id="grid" d="M42.6667 36.3333V41.6667H37.3333V36.3333H42.6667ZM45.3333 36.3333H52V41.6667H45.3333V36.3333ZM42.6667 51H37.3333V44.3333H42.6667V51ZM45.3333 51V44.3333H52V49.6667C52 50.0203 51.8595 50.3594 51.6095 50.6095C51.3594 50.8595 51.0203 51 50.6667 51H45.3333ZM42.6667 27V33.6667H37.3333V27H42.6667ZM45.3333 27H50.6667C51.0203 27 51.3594 27.1405 51.6095 27.3905C51.8595 27.6406 52 27.9797 52 28.3333V33.6667H45.3333V27ZM34.6667 36.3333V41.6667H28V36.3333H34.6667ZM34.6667 51H29.3333C28.9797 51 28.6406 50.8595 28.3905 50.6095C28.1405 50.3594 28 50.0203 28 49.6667V44.3333H34.6667V51ZM34.6667 27V33.6667H28V28.3333C28 27.9797 28.1405 27.6406 28.3905 27.3905C28.6406 27.1405 28.9797 27 29.3333 27H34.6667Z" fill="#E67A14"/>
		
		<path id="inner-lines" d="M45.0808 68L43.9488 61.8408C50.9332 60.5352 56.8632 55.872 59.8112 49.3668C61.1228 46.472 61.7884 43.4052 61.7884 40.2513C61.7884 39.5474 61.7536 38.8345 61.686 38.1334L67.8684 37.5264C67.956 38.4284 68 39.3454 68 40.2513C68 44.3096 67.146 48.2528 65.4608 51.9704C61.672 60.3304 54.0532 66.3228 45.0808 68ZM20.3592 60.3624C15.0462 55.0884 11.9996 47.7476 12 40.221C12 38.6635 12.1296 37.095 12.3865 35.5595L18.512 36.5994C18.3132 37.7929 18.2121 39.0112 18.2121 40.221C18.2114 46.0804 20.5825 51.794 24.7168 55.898L20.3592 60.3624ZM50.7348 21.1211C50.1912 20.8118 49.6252 20.5208 49.0536 20.2575C46.184 18.9348 43.1424 18.2643 40.0148 18.2643C36.7945 18.2643 33.5484 19.0056 30.6276 20.4075L27.9583 14.751C31.7072 12.9516 35.8767 12 40.0148 12C44.0392 12 47.9496 12.8618 51.6356 14.5607C52.3672 14.8981 53.0904 15.2693 53.7864 15.6658L50.7348 21.1211Z" fill="#010638"/>
		
		<g id="outer-lines">
			<path id="outer-top-left" d="M0.00210242 40.4472L0 40.0228C0 30.5507 3.36803 21.3619 9.48336 14.1476L15.6417 19.3738C10.7629 25.1304 8.07612 32.4629 8.07612 40.0232L8.07752 40.352L0.00210242 40.4472Z" fill="#010638"/>
			<path id="outer-bottom-left" d="M29.8265 78.7384C17.7864 75.5788 7.76036 66.8056 3.00609 55.27L10.4716 52.1892C14.2674 61.398 22.2686 68.4012 31.8754 70.9224L29.8265 78.7384Z" fill="#010638"/>
			<path id="outer-top-left_2" d="M59.8548 15.007C54.16 10.4761 47.2944 8.08032 39.9998 8.08032C37.049 8.08032 34.1286 8.48164 31.3204 9.2738L29.1302 1.49618C32.6511 0.503512 36.3083 0 39.9998 0C49.1396 0 57.7436 3.00322 64.8816 8.68356L59.8548 15.007Z" fill="#010638"/>
			<path id="outer-bottom-right" d="M41.9276 80L41.5436 71.9288C51.3008 71.4648 60.1844 66.6348 65.9168 58.678L72.468 63.4028C65.288 73.3688 54.1568 79.4184 41.9276 80Z" fill="#010638"/>
			<path id="outer-far-right" d="M77.3676 54.33L69.826 51.4412C71.2184 47.8016 71.9244 43.9592 71.9244 40.0224C71.9244 36.5078 71.358 33.056 70.2428 29.7613L77.8912 27.1686C79.2912 31.2992 80 35.6246 80 40.0224C80 44.9508 79.114 49.7648 77.3676 54.33Z" fill="#010638"/>
			<path id="outer-top-right" d="M68.8532 26.3319C67.2652 22.989 65.124 19.9672 62.4864 17.3485L68.1744 11.6133C71.476 14.8904 74.158 18.6764 76.1468 22.8647L68.8532 26.3319Z" fill="#010638"/>
		</g>
	</g>

	<style type="text/css">
		<![CDATA[
			#grid {
				transform: scale(1.1);
				transform-origin: center;
				transform-box: fill-box;
			}
			
			#inner-lines {
				animation: clockwise 6s linear infinite;
				transform-origin: center;
				transform-box: fill-box;
			}

			#outer-lines {
				animation: counter-clockwise 8s linear infinite;
				transform-origin: center;
				transform-box: fill-box;
			}
			
			@keyframes clockwise {
				from {
					transform: rotateZ(0);
				}
				to {
					transform: rotateZ(360deg);
				}
			}
			
			@keyframes counter-clockwise{
				from {
					transform: rotateZ(0);
				}
				to {
					transform: rotateZ(-360deg);
				}
			}
		]]>
	</style>
</svg>
